<svg width="39" height="39" viewBox="0 0 39 39" fill="none" xmlns="http://www.w3.org/2000/svg">
<path fill-rule="evenodd" clip-rule="evenodd" d="M6.81726 9.81734C5.00163 9.81734 3.36478 8.73078 2.66996 7.06439C1.97515 5.398 2.35921 3.47991 3.64305 2.20454C4.9269 0.929117 6.8577 0.54761 8.53512 1.2378C10.2125 1.92806 11.3063 3.55413 11.3063 5.35786C11.304 7.81994 9.29544 9.81515 6.81715 9.81734H6.81726Z" fill="#0C4778"/>
<path fill-rule="evenodd" clip-rule="evenodd" d="M31.656 32.2638C29.1768 32.2637 27.167 30.2671 27.167 27.8043C27.167 25.3414 29.1768 23.3448 31.656 23.3448C34.1352 23.3448 36.145 25.3414 36.145 27.8043C36.1427 30.2664 34.1342 32.2616 31.6559 32.2638H31.656Z" fill="#0C4778"/>
<path fill-rule="evenodd" clip-rule="evenodd" d="M23.97 27.8488C21.8146 27.1352 19.987 25.6797 18.817 23.745C17.0082 20.7206 13.7242 18.8722 10.183 18.8852C4.60493 18.8852 0.0830078 23.3773 0.0830078 28.9188C0.0830078 34.4601 4.60493 38.9523 10.183 38.9523C13.7185 38.9654 16.9982 37.123 18.809 34.1064C19.9926 32.159 21.8363 30.6944 24.009 29.9757C24.4643 29.8194 24.7668 29.3902 24.759 28.9118C24.7516 28.4274 24.4367 28.0006 23.974 27.8478L23.97 27.8488ZM10.1825 34.4937C9.56289 34.4937 9.06055 33.9947 9.06055 33.3791C9.06054 32.7635 9.56288 32.2645 10.1825 32.2645C10.8022 32.2644 11.3045 32.7635 11.3045 33.3791C11.3045 33.9947 10.8022 34.4937 10.1825 34.4937H10.1825ZM11.3194 29.8397C11.3232 30.476 10.8294 31.0061 10.1904 31.0517C9.9027 31.0742 9.61837 30.9777 9.4045 30.7852C9.19062 30.5927 9.06615 30.3211 9.06043 30.0344C9.00516 29.0271 9.61154 28.0998 10.5604 27.7406C11.098 27.5502 11.4064 26.9896 11.2773 26.4374C11.1482 25.8851 10.6227 25.5168 10.0557 25.5814C9.48866 25.6459 9.06052 26.1226 9.06043 26.6896C9.06043 27.3054 8.55787 27.8047 7.93793 27.8047C7.31799 27.8047 6.81543 27.3054 6.81543 26.6896C6.81543 24.9904 8.09836 23.561 9.79797 23.367C11.4976 23.1729 13.0735 24.2758 13.4616 25.931C13.8498 27.5862 12.9267 29.2675 11.3158 29.8396L11.3194 29.8397Z" fill="#0C4778"/>
<path fill-rule="evenodd" clip-rule="evenodd" d="M12.428 16.5069H1.20501C0.907261 16.5069 0.621723 16.3893 0.411282 16.1801C0.200836 15.9708 0.0827408 15.6871 0.0830078 15.3913C0.0870094 12.3141 2.597 9.8209 5.69427 9.8172H7.93901C11.0363 9.82102 13.5461 12.3144 13.55 15.3912C13.5503 15.6871 13.4322 15.9708 13.2217 16.1801C13.0113 16.3893 12.7258 16.5069 12.428 16.5069H12.428Z" fill="#0C4778"/>
<path fill-rule="evenodd" clip-rule="evenodd" d="M37.2669 38.9535H26.0439C25.7462 38.9535 25.4606 38.8359 25.2502 38.6267C25.0397 38.4173 24.9216 38.1336 24.9219 37.8378C24.9257 34.761 27.4356 32.2676 30.5328 32.2638H32.7779C35.8752 32.2676 38.385 34.7609 38.3889 37.8378C38.3892 38.1336 38.2711 38.4173 38.0606 38.6267C37.8502 38.8359 37.5646 38.9535 37.2669 38.9535Z" fill="#0C4778"/>
<path fill-rule="evenodd" clip-rule="evenodd" d="M28.2888 0.898254C23.5478 0.898254 21.4698 2.75795 19.6548 5.75707C18.595 7.60785 16.883 9.00327 14.8488 9.67412C14.3543 9.76513 13.9401 10.0992 13.7488 10.5613C13.5528 11.1536 13.8748 11.7921 14.4698 11.9908C16.6383 12.7108 18.4778 14.1745 19.6588 16.1195C21.4696 19.136 24.7493 20.9785 28.2848 20.9654C33.8629 20.9654 38.3848 16.4732 38.3848 10.9318C38.3848 5.39042 33.8629 0.898254 28.2848 0.898254H28.2888ZM32.5884 9.35531L27.9634 13.9499C27.753 14.159 27.4675 14.2765 27.1699 14.2765C26.8723 14.2765 26.5868 14.159 26.3764 13.9499L23.9964 11.5855C23.5584 11.1501 23.5585 10.4445 23.9966 10.0092C24.4348 9.57401 25.1451 9.57389 25.5834 10.0089L27.1704 11.5855L31.0014 7.77974C31.4397 7.34464 32.15 7.34476 32.5881 7.77998C33.0263 8.21521 33.0264 8.92087 32.5884 9.35628L32.5884 9.35531Z" fill="#0C4778"/>
</svg>
