<svg width="41" height="38" viewBox="0 0 41 38" fill="none" xmlns="http://www.w3.org/2000/svg">
<path fill-rule="evenodd" clip-rule="evenodd" d="M31.6792 20.6146C26.8583 20.614 22.9498 24.4921 22.9492 29.2763C22.9487 34.0607 26.8563 37.9397 31.6772 37.9403C36.4981 37.9408 40.4067 34.0628 40.4072 29.2784C40.4072 24.4967 36.5014 20.6178 31.6812 20.6146H31.6792ZM32.2396 35.6814V34.9331C32.2396 34.6254 31.9882 34.3758 31.6781 34.3758C31.368 34.3758 31.1166 34.6254 31.1166 34.9331V35.6814C27.9844 35.4076 25.5015 32.9434 25.2256 29.8351H25.9816C26.2917 29.8351 26.5431 29.5855 26.5431 29.2778C26.5431 28.9701 26.2917 28.7205 25.9816 28.7205H25.2256C25.5015 25.6122 27.9845 23.148 31.1166 22.8742V23.6234C31.1166 23.9313 31.368 24.1807 31.6781 24.1807C31.9882 24.1807 32.2396 23.9313 32.2396 23.6234V22.878C35.3721 23.1511 37.8555 25.6157 38.1306 28.7245H37.3745C37.0645 28.7245 36.813 28.974 36.813 29.2817C36.813 29.5895 37.0645 29.8389 37.3745 29.8389H38.1306C37.8532 32.9455 35.3709 35.4073 32.2405 35.6805L32.2396 35.6814Z" fill="#0C4778"/>
<path fill-rule="evenodd" clip-rule="evenodd" d="M34.932 28.4407H32.907C32.6292 28.0393 32.1705 27.799 31.68 27.7975H31.655L29.81 25.2172C29.5396 24.841 29.0131 24.7535 28.634 25.0217C28.2548 25.29 28.1666 25.8125 28.437 26.1888L30.283 28.7691C30.2229 28.9313 30.1915 29.1025 30.19 29.2752C30.19 29.9228 30.6149 30.4948 31.2382 30.6866C31.8614 30.8784 32.5379 30.645 32.907 30.111L34.932 30.1109C35.3979 30.1109 35.7755 29.7361 35.7755 29.2738C35.7755 28.8115 35.3979 28.4367 34.932 28.4367L34.932 28.4407Z" fill="#0C4778"/>
<path fill-rule="evenodd" clip-rule="evenodd" d="M8.40067 12.034C9.13364 12.0342 9.83668 11.7455 10.3551 11.2312C10.8734 10.717 11.1647 10.0193 11.1647 9.29195V3.3374C11.1647 1.82296 9.92764 0.595276 8.40167 0.595276C6.87571 0.595276 5.63867 1.82296 5.63867 3.3374V9.29195C5.63841 10.0191 5.92931 10.7165 6.44732 11.2308C6.96533 11.745 7.66801 12.034 8.40071 12.034H8.40067Z" fill="#0C4778"/>
<path fill-rule="evenodd" clip-rule="evenodd" d="M25.3264 12.034C26.0594 12.0342 26.7625 11.7455 27.2809 11.2312C27.7993 10.717 28.0905 10.0193 28.0905 9.29195L28.0905 3.3374C28.0905 1.82296 26.8534 0.595276 25.3275 0.595276C23.8015 0.595276 22.5645 1.82296 22.5645 3.3374V9.29195C22.564 10.0185 22.8547 10.7159 23.3726 11.2303C23.8905 11.7447 24.5931 12.0338 25.3258 12.034H25.3264Z" fill="#0C4778"/>
<path fill-rule="evenodd" clip-rule="evenodd" d="M12.1457 19.6498C12.1459 19.2736 11.9954 18.9128 11.7274 18.647C11.4593 18.3811 11.0956 18.232 10.7167 18.2326H8.06868C7.27946 18.232 6.63922 18.8666 6.63867 19.6498L6.63868 22.2767C6.63868 23.0607 7.27875 23.6964 8.06868 23.697L10.7167 23.6969C11.096 23.6969 11.4598 23.5473 11.7278 23.2809C11.9959 23.0145 12.1462 22.6532 12.1457 22.2767V19.6498Z" fill="#0C4778"/>
<path fill-rule="evenodd" clip-rule="evenodd" d="M19.6183 19.651C19.6183 18.8689 18.9794 18.2348 18.1913 18.2348H15.5383C14.7502 18.2348 14.1113 18.8689 14.1113 19.651V22.2779C14.1109 23.0608 14.7498 23.6957 15.5385 23.6962H18.1873C18.9758 23.695 19.6143 23.0604 19.6143 22.2779L19.6183 19.651Z" fill="#0C4778"/>
<path fill-rule="evenodd" clip-rule="evenodd" d="M23.013 18.2326C22.6339 18.2321 22.2702 18.3811 22.002 18.6469C21.7337 18.9128 21.583 19.2736 21.583 19.6498V22.2767C21.5887 22.9708 22.1063 23.5557 22.799 23.6512C23.8516 22.0253 25.3347 20.7181 27.086 19.8732V19.6488C27.0863 19.2729 26.9359 18.9121 26.6678 18.6462C26.3998 18.3803 26.0362 18.2311 25.6572 18.2316L23.013 18.2326Z" fill="#0C4778"/>
<path fill-rule="evenodd" clip-rule="evenodd" d="M8.06867 25.3524C7.27985 25.3518 6.63978 25.9857 6.63867 26.7685V29.3964C6.63973 30.1793 7.27976 30.8132 8.06859 30.8126H10.7177C11.0962 30.813 11.4593 30.6639 11.727 30.3982C11.9947 30.1325 12.1449 29.7722 12.1447 29.3964V26.7685C12.1449 26.3929 11.9947 26.0325 11.727 25.7668C11.4593 25.5012 11.0962 25.3521 10.7177 25.3524H8.06867Z" fill="#0C4778"/>
<path fill-rule="evenodd" clip-rule="evenodd" d="M18.1882 25.3533H15.5452C14.7569 25.3538 14.1181 25.9881 14.1182 26.7704V29.3964C14.1179 29.7722 14.2682 30.1325 14.5358 30.3981C14.8035 30.6638 15.1666 30.8128 15.5452 30.8126H18.1922C18.9803 30.8126 19.6192 30.1785 19.6192 29.3964V26.7714C19.6194 26.3949 19.4687 26.0336 19.2002 25.7676C18.9317 25.5016 18.5676 25.3524 18.1882 25.3533Z" fill="#0C4778"/>
<path fill-rule="evenodd" clip-rule="evenodd" d="M22.048 33.5269H8.615C6.30087 33.5236 4.4254 31.6633 4.421 29.3666L4.421 15.439H29.309V19.0832C30.7593 18.7417 32.267 18.7166 33.728 19.0096L33.728 5.91162H29.747V9.28589C29.747 11.709 27.7677 13.6734 25.326 13.6734C22.8843 13.6734 20.905 11.709 20.905 9.28589V5.91162H12.823V9.28589C12.823 11.709 10.8437 13.6734 8.402 13.6734C5.96035 13.6734 3.981 11.709 3.981 9.28589V5.91162H0V29.3626C0 34.0845 3.85706 37.9123 8.615 37.9123H25.115C25.315 37.9123 25.504 37.8965 25.697 37.8836C24.1024 36.7896 22.8403 35.2827 22.048 33.5269H22.048Z" fill="#0C4778"/>
</svg>
