<svg width="47" height="44" viewBox="0 0 47 44" fill="none" xmlns="http://www.w3.org/2000/svg">
<path fill-rule="evenodd" clip-rule="evenodd" d="M37.0351 1.65774C36.5657 2.19255 35.8546 2.94563 35.4548 3.33117C34.3936 4.35447 32.0819 6.22904 31.0747 6.88283C30.0251 7.56414 27.4657 8.80966 26.4071 9.15423C24.727 9.70102 22.3094 9.83366 18.377 9.59451C14.9956 9.38882 12.2426 9.7031 10.0579 10.5441C8.74758 11.0485 6.42108 12.2652 5.46303 12.9472C4.48274 13.645 2.69905 15.3994 1.39673 16.9465L0.427655 18.0978L4.66003 25.8551C6.98782 30.1215 8.91455 33.6346 8.94155 33.6618C8.96855 33.689 9.04122 33.6267 9.10306 33.5235C9.48922 32.8786 10.4794 31.7834 11.1788 31.2276C12.7386 29.9878 15.5668 28.8049 17.9424 28.3988C19.2807 28.1699 20.9693 28.1334 26.5382 28.2127C29.9024 28.2605 30.5406 28.2106 32.3455 27.7581C37.9732 26.3468 44.2148 21.6107 46.686 16.8764L47 16.2751L42.5454 8.66069C40.0954 4.47286 38.0452 0.965144 37.9897 0.865863C37.901 0.707686 37.7829 0.80568 37.0351 1.65774ZM22.3328 11.4645C22.5915 11.8321 22.8181 12.1522 22.8364 12.1761C22.8546 12.2 23.1701 12.1182 23.5374 11.9944C23.9047 11.8706 24.5465 11.7448 24.9634 11.7149L25.7217 11.6605L26.0091 12.8864L26.2966 14.1124L25.3787 14.229C23.787 14.431 22.6269 15.1342 22.6269 15.8967C22.6269 16.7035 23.3644 16.883 25.4566 16.5855C26.9202 16.3773 28.0335 16.4255 28.8459 16.7321C29.5879 17.0121 30.3814 17.7392 30.815 18.5367C31.1335 19.1224 31.1542 19.2182 31.1541 20.1009C31.154 21.1426 30.9871 21.6505 30.4034 22.3854L30.0953 22.7734L30.6495 23.5621C30.9544 23.996 31.2039 24.3914 31.2039 24.4409C31.2039 24.5082 29.9052 25.3307 29.2051 25.7067C29.1705 25.7253 28.911 25.407 28.6284 24.9994C28.3458 24.5917 28.0736 24.2583 28.0233 24.2583C27.9732 24.2583 27.5921 24.3721 27.1766 24.5112C26.7422 24.6566 26.0708 24.7887 25.5973 24.8221C24.8479 24.8747 24.7684 24.8632 24.7158 24.6929C24.5332 24.1015 24.1562 22.6011 24.156 22.4651C24.1557 22.332 24.3192 22.2965 25.1236 22.2546C27.4214 22.135 28.9815 20.7951 28.0746 19.7203C27.6863 19.2602 27.0735 19.1689 25.761 19.3756C24.1909 19.6228 22.6707 19.5969 21.928 19.3103C21.1912 19.0259 20.4711 18.3311 20.1044 17.5507C19.7216 16.7361 19.7235 15.6422 20.109 14.8213C20.2582 14.5035 20.492 14.1113 20.6284 13.9496L20.8764 13.6557L20.3321 12.8812C20.0327 12.4553 19.7887 12.068 19.7898 12.0207C19.7918 11.9372 21.6539 10.8003 21.793 10.7977C21.8312 10.797 22.0741 11.097 22.3328 11.4645ZM43.3109 24.3905C40.4201 27.2194 38.7288 28.413 36.2702 29.3599C35.2003 29.7719 33.6853 30.1558 32.5962 30.291C31.6578 30.4074 27.8547 30.4147 24.7513 30.306C21.3201 30.1859 19.1882 30.4202 17.0902 31.1485C13.557 32.3747 10.7422 34.7148 9.61272 37.3647C9.45815 37.7274 9.29376 37.9862 9.2473 37.9399C9.20094 37.8937 7.47295 34.8097 5.40734 31.0868C3.34183 27.3639 1.61145 24.3053 1.56211 24.2898C1.46046 24.2582 0 26.4954 0 26.6829C0 26.7499 2.04685 30.5561 4.54855 35.141L9.09721 43.4773L9.85444 42.0092C11.3934 39.0254 12.4987 37.5409 14.179 36.2011C16.6698 34.2152 18.2238 33.5657 21.3499 33.2038C22.72 33.0452 25.1189 33.0521 29.3674 33.2271C32.8695 33.3713 35.7616 32.7771 38.798 31.2895C41.2337 30.0962 42.8573 28.9166 44.286 27.3023C45.059 26.4289 45.9951 25.1416 45.9951 24.9521C45.9951 24.8066 44.9004 22.9703 44.8165 22.9748C44.7822 22.9766 44.1047 23.6137 43.3109 24.3905Z" fill="#0C4778"/>
</svg>
