<svg width="43" height="41" viewBox="0 0 43 41" fill="none" xmlns="http://www.w3.org/2000/svg">
<path fill-rule="evenodd" clip-rule="evenodd" d="M7.91736 34.0616L0.360352 7.98367L26.6313 0.47998L34.1964 26.5559L7.91736 34.0616ZM24.899 3.59414L3.49902 9.70551L7.81903 24.6127C9.0224 23.0762 9.95618 21.3494 10.581 19.5047C10.899 18.3645 11.181 17.2112 11.553 16.0908C11.6691 15.7454 12.0391 15.2492 12.3181 15.2324C13.631 15.2537 14.7723 14.3422 15.032 13.0648C15.2161 12.4287 15.707 12.3136 16.252 12.6679C16.6578 12.9294 17.0378 13.2285 17.387 13.561C18.475 14.6121 19.528 15.6978 20.616 16.7487C22.137 18.2196 22.195 18.4488 21.257 20.3681C21.033 20.8276 20.714 21.2404 20.482 21.697C20.1243 22.3814 19.4632 22.8592 18.697 22.9871C16.729 23.4833 14.785 24.0788 12.835 24.6375C11.302 25.0792 9.77203 25.5307 8.211 25.9912L8.73999 27.6902L30.1 21.5878L29.614 19.8699L21.5939 22.1317C22.0759 20.6997 22.5579 19.3211 22.994 17.9298C23.106 17.4282 23.5142 17.0447 24.025 16.9611C24.4484 16.7748 24.8162 16.4832 25.093 16.1146C25.3085 15.8195 25.4915 15.5025 25.639 15.1688L29.222 18.5103L24.899 3.59414Z" fill="#0C4778"/>
<path fill-rule="evenodd" clip-rule="evenodd" d="M35.9338 27.846C35.7468 30.1762 35.5718 32.3635 35.3888 34.6431L17.4078 33.3222L17.3809 33.1465L35.9338 27.846Z" fill="#0C4778"/>
<path fill-rule="evenodd" clip-rule="evenodd" d="M35.9912 26.1848C34.5392 22.4136 33.6152 18.7109 34.3242 14.7451C34.5311 13.1437 34.6543 11.5329 34.6932 9.91897C33.6932 9.83259 32.7932 9.70357 31.9022 9.69564C31.631 9.7278 31.3589 9.64391 31.1537 9.46492C30.9486 9.28598 30.8298 9.02879 30.8273 8.75779C30.7273 8.22784 30.5432 7.71473 30.3633 7.07562C31.8853 7.18084 33.3243 7.27909 34.7633 7.3803C35.1493 7.40714 35.5343 7.45669 35.9213 7.47159C37.6042 7.53713 37.4482 7.34257 37.3342 9.0277C36.9733 14.3342 36.5502 19.6358 36.1462 24.9393C36.1172 25.3204 36.0542 25.6945 35.9912 26.1848Z" fill="#0C4778"/>
<path fill-rule="evenodd" clip-rule="evenodd" d="M18.7842 35.1552L31.6422 36.0871L29.0222 40.9033L18.7432 35.3864L18.7842 35.1552Z" fill="#0C4778"/>
<path fill-rule="evenodd" clip-rule="evenodd" d="M38.6147 15.2074L42.0317 17.0374L38.1198 24.2246L37.9268 24.1899C38.1517 21.2474 38.3807 18.3038 38.6147 15.2074Z" fill="#0C4778"/>
<path fill-rule="evenodd" clip-rule="evenodd" d="M10.4461 12.4258C10.4366 12.9917 10.1944 13.5292 9.77576 13.9135C9.35712 14.2979 8.7984 14.4957 8.22919 14.4613C7.65814 14.4503 7.11554 14.2119 6.72339 13.7998C6.3313 13.3877 6.1225 12.8365 6.1441 12.2701C6.21539 11.0975 7.19952 10.1859 8.38312 10.1959C9.57202 10.249 10.4941 11.2458 10.4461 12.4258Z" fill="#0C4778"/>
</svg>
