<svg width="49" height="49" viewBox="0 0 49 49" fill="none" xmlns="http://www.w3.org/2000/svg">
<g clip-path="url(#clip0_101_222)">
<path d="M8.13434 48.5074C5.54658 48.5081 2.95883 48.5081 0.371076 48.5074C-0.0540449 48.5074 -0.0526207 48.5052 0.0741323 48.0948C0.905147 45.4099 1.7326 42.7243 2.57003 40.0415C2.71601 39.5743 2.56575 39.1393 2.47959 38.698C1.87217 35.5861 1.21776 32.4821 0.658763 29.3615C0.212991 26.8714 0.599659 24.4755 1.91632 22.3032C3.65526 19.4349 6.16824 17.5932 9.44815 16.9283C12.1705 16.3762 14.8807 16.4539 17.5055 17.4732C19.6546 18.3071 21.2305 19.8008 22.3264 21.8373C23.4102 23.8516 23.762 26.0254 23.7584 28.2811C23.7584 28.4759 23.7776 28.6549 23.8524 28.8382C24.8821 31.3484 25.9054 33.8615 26.9294 36.3739C27.138 36.8865 27.0013 37.1582 26.4622 37.3041C25.6262 37.5298 24.791 37.7606 23.9514 37.9712C23.7178 38.0302 23.6281 38.1265 23.6174 38.3802C23.5505 40.0199 23.4643 41.6589 23.3839 43.2979C23.3369 44.2554 22.5892 44.9232 21.6406 44.8032C19.9694 44.5911 18.3023 44.3481 16.6339 44.1181C16.5755 44.1102 16.5157 44.1037 16.458 44.0908C16.1511 44.0239 16.0386 44.1095 16.0664 44.4588C16.1646 45.6888 16.2209 46.9216 16.312 48.1523C16.3341 48.4449 16.2451 48.5139 15.9667 48.5132C13.3568 48.5031 10.7456 48.5074 8.13434 48.5074Z" fill="#0C4778"/>
<path d="M25.0928 16.2871C25.0935 14.2858 25.085 12.2853 25.095 10.284C25.117 5.99964 28.115 2.15235 32.2344 1.11433C32.985 0.925275 33.7476 0.826073 34.5238 0.828949C36.2093 0.836137 37.8949 0.827511 39.5804 0.831824C43.6137 0.843326 47.1813 3.43766 48.4788 7.2986C50.0981 12.1163 47.8322 17.2885 43.2192 19.2962C42.0713 19.7958 40.8686 20.0453 39.621 20.0474C36.4401 20.0539 33.2591 20.0532 30.0782 20.0453C29.8105 20.0445 29.6089 20.1186 29.4095 20.2954C28.7772 20.8568 28.1484 21.4247 27.484 21.9452C27.0361 22.296 26.5911 22.6497 26.1588 23.0199C25.9445 23.2039 25.7145 23.2995 25.4417 23.1586C25.179 23.0227 25.0914 22.7934 25.0914 22.5059C25.0942 20.4327 25.0928 18.3596 25.0928 16.2871Z" fill="#0C4778"/>
<path d="M38.8399 6.87159C38.2944 6.87159 37.7482 6.8759 37.2028 6.87015C36.7363 6.86512 36.4508 6.6013 36.4536 6.19299C36.4572 5.8005 36.7363 5.54746 37.1892 5.54387C37.8415 5.53812 38.4945 5.53524 39.1468 5.54675C39.3497 5.55034 39.4167 5.48636 39.4067 5.28293C39.3917 4.98389 39.396 4.68413 39.406 4.38508C39.4195 3.98972 39.6823 3.71296 40.0412 3.70074C40.3887 3.68852 40.6885 3.96384 40.7148 4.35202C40.7355 4.66184 40.734 4.97526 40.7219 5.2858C40.7134 5.49283 40.7896 5.55106 40.9882 5.54746C41.6291 5.53668 42.27 5.54028 42.9102 5.54531C43.3802 5.5489 43.67 5.80913 43.6664 6.21168C43.6622 6.60777 43.3674 6.86152 42.8967 6.87302C42.2287 6.88956 42.2323 6.89028 42.0393 7.51855C41.7637 8.41568 41.3856 9.26608 40.8337 10.0266C40.6913 10.2229 40.712 10.3228 40.9199 10.4263C41.1962 10.5629 41.4632 10.7196 41.7367 10.8626C42.1205 11.0632 42.265 11.4334 42.0927 11.7856C41.9254 12.1285 41.5707 12.2392 41.1812 12.0646C40.7689 11.8798 40.3702 11.6656 40.0034 11.4003C39.8254 11.2717 39.7086 11.2853 39.5477 11.4284C39.1995 11.7368 38.8128 11.9956 38.3984 12.2062C37.9796 12.419 37.5987 12.3169 37.4192 11.9575C37.2483 11.616 37.3879 11.2709 37.781 11.0344C38.0352 10.8813 38.2794 10.7124 38.5322 10.5571C38.7074 10.4493 38.7195 10.3544 38.565 10.2035C38.2154 9.86057 37.9156 9.47382 37.6528 9.05905C37.4897 8.8017 37.4185 8.53213 37.6058 8.25322C37.7504 8.03756 37.9519 7.93333 38.2125 7.95346C38.4461 7.97143 38.6063 8.1001 38.7259 8.29347C38.9403 8.63996 39.1931 8.95553 39.4701 9.25386C39.5868 9.37894 39.6595 9.42566 39.782 9.24235C40.2156 8.59108 40.546 7.89451 40.7782 7.14619C40.843 6.93628 40.8031 6.86727 40.5831 6.87087C40.002 6.87949 39.4202 6.87374 38.8391 6.87374C38.8399 6.87302 38.8399 6.87231 38.8399 6.87159Z" fill="white"/>
<path d="M32.399 8.92966C32.7728 8.92463 33.0555 9.1259 33.1994 9.52055C33.7263 10.9683 34.2483 12.4182 34.7724 13.8674C35.0522 14.6424 35.3356 15.4158 35.6112 16.1929C35.7586 16.6084 35.6112 16.9729 35.2538 17.1109C34.8906 17.2511 34.568 17.0785 34.3921 16.6501C34.3743 16.6063 34.3565 16.561 34.3373 16.5178C34.2077 16.2238 34.2127 15.8177 33.9649 15.6444C33.7057 15.4633 33.3218 15.592 32.9936 15.5869C32.3534 15.5769 31.7125 15.5898 31.0723 15.5812C30.8915 15.579 30.7911 15.6293 30.7369 15.8141C30.6593 16.0772 30.5554 16.3324 30.4578 16.589C30.2776 17.0642 29.9422 17.2568 29.5613 17.108C29.1931 16.9635 29.0571 16.6034 29.2209 16.1469C29.7001 14.8091 30.1872 13.4735 30.6707 12.1372C30.9798 11.2839 31.2874 10.4299 31.5979 9.57662C31.756 9.14316 32.0173 8.93469 32.399 8.92966Z" fill="white"/>
<path d="M32.4445 11.2997C32.6923 11.9776 32.9409 12.6555 33.1887 13.3341C33.2706 13.5576 33.3439 13.7848 33.4315 14.0055C33.5056 14.1909 33.4643 14.2585 33.257 14.2549C32.7016 14.2448 32.1455 14.2398 31.59 14.2549C31.3308 14.2621 31.3258 14.1751 31.4042 13.9652C31.7317 13.0839 32.0458 12.1976 32.3648 11.3127C32.3918 11.3083 32.4182 11.304 32.4445 11.2997Z" fill="#0C4778"/>
</g>
<defs>
<clipPath id="clip0_101_222">
<rect width="49" height="47.6842" fill="white" transform="translate(0 0.828949)"/>
</clipPath>
</defs>
</svg>
