<svg width="31" height="43" viewBox="0 0 31 43" fill="none" xmlns="http://www.w3.org/2000/svg">
<path fill-rule="evenodd" clip-rule="evenodd" d="M13.4074 0.904849C5.93877 1.98335 0.32065 8.19663 0.00958203 15.7222C-0.087225 18.0647 0.542313 20.3395 2.22563 23.7293C4.44927 28.2073 8.77636 34.4472 13.8044 40.4266C14.4774 41.2269 15.1406 42.0156 15.2783 42.1794L15.5286 42.4773L16.6456 41.1659C24.1957 32.3014 29.2282 24.3592 30.7364 18.9282C30.9808 18.048 31.0001 17.8419 31 16.1146C30.9998 14.0191 30.8489 13.0894 30.2077 11.2339C28.4114 6.036 23.927 2.13177 18.5111 1.05102C17.1619 0.781734 14.7399 0.712379 13.4074 0.904849ZM17.0651 7.44529C19.385 7.85574 21.6541 9.67939 22.6429 11.9282C23.2941 13.4092 23.4622 15.434 23.0638 16.9975C22.5259 19.1088 21.0581 20.9927 19.1747 21.9896C15.1475 24.1212 10.1853 22.3434 8.39079 18.1261C7.11175 15.1201 7.83303 11.7128 10.2324 9.42689C12.0597 7.68593 14.4713 6.98648 17.0651 7.44529Z" fill="#0C4778"/>
</svg>
