<svg width="29" height="39" viewBox="0 0 29 39" fill="none" xmlns="http://www.w3.org/2000/svg">
<g clip-path="url(#clip0_101_338)">
<path d="M29 2.05427C29 1.94389 28.9993 1.83352 28.9993 1.72315C28.9993 1.2375 28.8047 0.896806 28.2952 0.787903C19.0863 0.787903 9.87733 0.787903 0.668391 0.787903C0.184921 0.965238 0.0653538 1.08297 0.0423314 1.50534C0.0267356 1.50387 0.0126252 1.50902 0 1.52373C0 13.5914 0 25.659 0 37.7267C0.0133678 37.7303 0.0267356 37.7318 0.0401035 37.734C0.0898615 38.2425 0.326026 38.4706 0.831775 38.4971C0.930549 38.5022 1.03006 38.4986 1.12884 38.4986C6.9832 38.4986 12.8376 38.4986 18.6919 38.4986C19.2556 38.4986 19.2749 38.4802 19.2853 37.9327C19.2883 37.7855 19.2868 37.6384 19.2868 37.4912C19.2868 35.1858 19.2972 32.8797 19.2831 30.5744C19.2742 29.0843 20.2121 28.0954 21.745 28.127C23.9596 28.1726 26.1757 28.141 28.391 28.1373C28.9896 28.1366 28.9993 28.1204 28.9993 27.5501C29 19.0513 29 10.5524 29 2.05427ZM12.8086 11.6495C13.5817 9.5546 14.3622 7.46263 15.1324 5.36625C15.2661 5.00201 15.4874 4.74889 15.8802 4.68855C16.3028 4.62306 16.614 4.80113 16.8553 5.14624C18.1364 6.97625 19.4249 8.80111 20.7105 10.6282C20.8389 10.8107 20.9444 11.0027 20.934 11.2367C20.9362 11.6179 20.7038 11.9608 20.3532 12.094C19.9879 12.2323 19.569 12.1403 19.3165 11.8239C19.0491 11.4884 18.8056 11.133 18.5672 10.7761C18.458 10.6127 18.3392 10.5509 18.1401 10.5774C17.1613 10.7091 16.1817 10.8342 15.2007 10.9497C15.0247 10.9703 14.9816 11.0829 14.9341 11.2088C14.7878 11.5965 14.6571 11.9917 14.4959 12.3728C14.3095 12.8129 13.959 13.0152 13.5401 12.9593C13.0752 12.8975 12.8019 12.6245 12.7202 12.1491C12.6898 11.9689 12.7507 11.8077 12.8086 11.6495ZM14.9534 29.8238C14.8205 29.8466 14.6831 29.8437 14.5472 29.8437C13.0641 29.8452 11.5802 29.8444 10.0972 29.8444C8.57694 29.8444 7.05598 29.8489 5.53576 29.8422C4.79088 29.8393 4.31781 29.2801 4.51907 28.662C4.64606 28.2712 4.98026 28.0122 5.40357 28.0115C8.54352 28.0078 11.6827 28.0071 14.8227 28.0115C15.3106 28.0122 15.7154 28.389 15.748 28.8386C15.7837 29.3294 15.4584 29.7377 14.9534 29.8238ZM19.6871 23.5052C19.6039 23.8989 19.22 24.1932 18.7603 24.194C16.5338 24.1969 14.3073 24.1955 12.0808 24.1955C9.86694 24.1955 7.65233 24.1991 5.43848 24.1932C4.76414 24.1918 4.30815 23.5928 4.52649 23.0063C4.64903 22.6767 4.88222 22.4515 5.24835 22.3978C5.38203 22.3779 5.51868 22.3699 5.65384 22.3691C9.94566 22.3676 14.2382 22.3676 18.53 22.3676C18.7521 22.3676 18.9749 22.364 19.1813 22.4662C19.5853 22.6671 19.7799 23.0674 19.6871 23.5052ZM22.5849 17.8923C22.4847 18.2337 22.2552 18.4604 21.8987 18.5362C21.7554 18.5663 21.6046 18.5759 21.4576 18.5759C16.1899 18.5781 10.9215 18.5774 5.65384 18.5781C5.43105 18.5781 5.20751 18.5781 5.00254 18.4751C4.61413 18.2801 4.40321 17.8563 4.49753 17.4722C4.6067 17.0299 4.95872 16.7503 5.43848 16.7503C8.14694 16.7474 10.8547 16.7488 13.5631 16.7488C16.2464 16.7488 18.9303 16.7474 21.6135 16.7496C22.3087 16.7496 22.7632 17.286 22.5849 17.8923ZM25.3721 7.7165C25.0439 7.77168 24.7134 7.82981 24.3814 7.84821C24.149 7.86145 24.1178 7.95932 24.1505 8.1499C24.2002 8.43908 24.25 8.72974 24.2804 9.02113C24.3495 9.67749 23.9581 10.158 23.3744 10.1484C22.8642 10.1396 22.5151 9.80773 22.4342 9.24408C22.3978 8.99022 22.3555 8.73415 22.3517 8.47808C22.3473 8.17713 22.2062 8.10796 21.9359 8.15873C21.6692 8.20877 21.3989 8.24041 21.1301 8.27867C20.5649 8.35961 20.0859 8.01304 20.0072 7.46558C19.9396 6.99391 20.3369 6.52739 20.8716 6.45528C21.1895 6.4126 21.5073 6.36551 21.8267 6.33755C22.0227 6.31989 22.0673 6.24115 22.0346 6.05499C21.9767 5.72975 21.9262 5.40157 21.9061 5.07265C21.8727 4.51121 22.2121 4.09547 22.7253 4.03292C23.1902 3.97626 23.6261 4.32725 23.7286 4.86588C23.788 5.17788 23.8163 5.49576 23.846 5.8129C23.8645 6.00789 23.9143 6.09031 24.1453 6.04321C24.4824 5.97478 24.83 5.94461 25.1753 5.92622C25.7241 5.89678 26.1252 6.23527 26.1712 6.74152C26.2158 7.22349 25.8883 7.62967 25.3721 7.7165Z" fill="#0C4778"/>
<path d="M21.5749 29.8459C21.1322 29.8466 21.0216 29.9636 21.0216 30.422C21.0201 31.918 21.0201 33.4139 21.0238 34.9099C21.0238 34.9857 20.9755 35.0813 21.0921 35.1512C22.746 33.4044 24.4014 31.6553 26.1147 29.8451C24.5425 29.8444 23.0587 29.8429 21.5749 29.8459Z" fill="#0C4778"/>
<path d="M16.2923 7.55243C16.1037 8.06163 15.9314 8.52594 15.7375 9.04764C16.2515 8.97847 16.703 8.91813 17.2073 8.85044C16.8872 8.39569 16.602 7.99099 16.2923 7.55243Z" fill="#0C4778"/>
</g>
<defs>
<clipPath id="clip0_101_338">
<rect width="29" height="37.7121" fill="white" transform="translate(0 0.787903)"/>
</clipPath>
</defs>
</svg>
