<svg width="56" height="45" viewBox="0 0 56 45" fill="none" xmlns="http://www.w3.org/2000/svg">
<g clip-path="url(#clip0_101_232)">
<path d="M16.2395 0.849916C25.7726 0.86887 33.1897 8.40807 32.9124 17.6579C32.6447 26.5358 25.6589 33.4163 16.9883 33.6959C16.2466 33.7196 15.6233 33.9328 14.993 34.3001C12.256 35.8899 9.35794 37.0793 6.2513 37.7356C5.98353 37.7924 5.70865 37.828 5.43614 37.8564C4.88163 37.9156 4.42903 37.7972 4.19443 37.2096C3.95273 36.6054 4.26315 36.2263 4.69206 35.8994C5.97642 34.9303 6.87689 33.6438 7.7513 32.3217C8.12808 31.753 8.10912 31.4616 7.48827 31.0399C2.39585 27.5901 -0.0851893 22.7567 0.00248845 16.613C0.109123 9.13308 6.0641 2.27151 13.4409 1.10343C14.4551 0.942319 15.4669 0.778836 16.2395 0.849916ZM12.6613 12.616C12.6613 12.6207 12.6613 12.6255 12.6613 12.6302C11.9101 12.6302 11.1613 12.6184 10.4101 12.6326C9.7276 12.6468 9.25604 12.9477 9.25604 13.6869C9.25604 14.4309 9.76789 14.7105 10.4148 14.7697C10.8461 14.81 11.2868 14.8195 11.7158 14.7673C12.3295 14.6939 12.6541 14.8953 12.8105 15.5208C13.1304 16.7931 13.711 17.9659 14.4954 19.0084C14.9006 19.5463 14.756 19.795 14.2987 20.1315C13.4361 20.7641 12.5214 21.2925 11.5546 21.7474C10.9195 22.0459 10.6968 22.598 11.0072 23.2211C11.3105 23.83 11.8177 23.9698 12.4954 23.6831C13.6684 23.1832 14.7726 22.5672 15.711 21.7237C16.2584 21.2309 16.5594 21.3043 17.0665 21.745C17.9883 22.5482 19.038 23.1761 20.1707 23.6665C20.8579 23.9627 21.4954 24.0788 21.8816 23.2827C22.2703 22.4866 21.8011 22.0293 21.1162 21.7213C20.1423 21.2806 19.2395 20.7262 18.3864 20.0794C18.0049 19.7879 17.9504 19.5486 18.2466 19.1127C18.756 18.3687 19.3816 17.6058 19.5736 16.7623C19.9409 15.137 20.7395 14.483 22.403 14.7531C23.1162 14.8692 23.6541 14.3906 23.6518 13.649C23.6494 12.9524 23.1376 12.6302 22.4504 12.6278C21.4243 12.6231 20.3935 12.5686 19.3698 12.6302C18.1636 12.7013 17.211 12.6634 17.5072 10.993C17.6139 10.3959 17.1233 9.93154 16.5001 9.90785C15.8887 9.88652 15.4977 10.2396 15.3959 10.903C15.3105 11.4574 15.7418 12.2203 15.1233 12.5236C14.6399 12.7605 13.9646 12.6041 13.3745 12.6184C13.1352 12.6207 12.8982 12.616 12.6613 12.616Z" fill="#0C4778"/>
<path d="M56 23.8774C55.8436 29.6704 53.4099 34.2551 48.6208 37.5389C47.9336 38.0104 47.8507 38.29 48.3033 38.9771C49.1327 40.2376 50.019 41.4341 51.1967 42.3913C51.6754 42.7799 52.1208 43.1566 51.7772 43.8698C51.4194 44.6114 50.7867 44.5498 50.1588 44.4266C46.9621 43.8011 43.936 42.6614 41.1967 40.9366C39.7156 40.003 38.1422 40.3466 36.6303 40.0386C31.9858 39.0909 28.3649 36.7121 25.7227 32.7861C25.3294 32.2009 25.4739 31.9947 25.9976 31.6322C33.2014 26.6282 35.6351 18.0986 32.1209 10.0453C31.7441 9.18048 32.1706 9.07623 32.718 8.82035C42.4905 4.28309 54.0924 10.4978 55.782 21.1574C55.9242 22.0601 55.9644 22.9581 56 23.8774ZM33.1232 29.5591C33.0474 30.2912 33.282 30.7224 33.8365 30.9048C34.4763 31.1133 35.0142 30.8148 35.1327 30.2177C35.5948 27.8768 37.2014 27.6304 39.1469 27.8768C39.6137 27.9361 40.1019 27.9432 40.564 27.8745C42.1967 27.6352 43.3341 28.0427 43.7109 29.86C43.8554 30.5613 44.3554 31.2437 45.2512 30.8598C46.1706 30.4665 46.0071 29.751 45.6588 28.9786C44.0118 25.3251 42.3981 21.6597 40.7725 17.9967C40.519 17.4234 40.3389 16.7718 39.5379 16.7505C38.7204 16.7268 38.5237 17.3878 38.2701 17.9565C36.8009 21.2569 35.3412 24.5598 33.8791 27.8626C33.6114 28.4715 33.3389 29.0781 33.1232 29.5591Z" fill="#0C4778"/>
<path d="M16.4623 17.9186C15.6519 16.9921 14.7064 15.8525 15.095 15.0138C15.422 14.3053 16.9362 14.9166 18.0144 14.7413C17.7182 15.997 17.1613 16.9613 16.4623 17.9186Z" fill="#0C4778"/>
<path d="M39.5071 20.4537C40.3128 22.2734 41.0521 23.9414 41.8317 25.7018C40.2298 25.7018 38.7844 25.7018 37.2014 25.7018C37.9621 23.9722 38.6967 22.2971 39.5071 20.4537Z" fill="#0C4778"/>
</g>
<defs>
<clipPath id="clip0_101_232">
<rect width="56" height="43.6667" fill="white" transform="translate(0 0.833344)"/>
</clipPath>
</defs>
</svg>
