<svg width="48" height="33" viewBox="0 0 48 33" fill="none" xmlns="http://www.w3.org/2000/svg">
<path d="M36.7121 22.5339C36.7121 23.3908 36.7332 24.0246 36.7091 24.6554C36.5433 28.8894 32.9695 32.4451 28.6814 32.4808C21.8168 32.5403 14.9493 32.5433 8.08476 32.4778C3.76655 32.4362 0.144437 28.9192 0.0691022 24.6613C-0.0243133 19.3293 -0.0273267 13.9943 0.0781424 8.66235C0.162518 4.36878 3.7093 0.890482 8.0727 0.833948C14.9372 0.744685 21.8048 0.738734 28.6693 0.836924C33.1713 0.902384 36.6338 4.51755 36.7091 8.94799C36.7181 9.49547 36.7091 10.043 36.7091 10.7749C39.1288 9.39431 41.41 8.05238 43.7333 6.79079C44.7398 6.24331 45.6619 5.09181 47.0089 5.82675C48.4312 6.60334 47.9009 8.03453 47.9129 9.2128C47.9581 14.5448 47.937 19.8798 47.928 25.2147C47.925 27.6516 46.8311 28.2884 44.6946 27.0863C42.085 25.6194 39.4905 24.1198 36.7121 22.5339Z" fill="#0C4778"/>
<path d="M14.4973 16.4849C14.4973 14.8454 14.5003 13.2029 14.4973 11.5635C14.4942 10.4983 14.9613 10.1829 15.9105 10.7214C18.8757 12.4025 21.8409 14.0837 24.791 15.7916C25.7824 16.3658 25.7493 16.9699 24.7428 17.5411C21.8228 19.2014 18.9089 20.8736 15.9979 22.5518C14.9794 23.138 14.4882 22.8672 14.4912 21.7097C14.4912 19.9691 14.4912 18.2285 14.4912 16.4878C14.4942 16.4849 14.4973 16.4849 14.4973 16.4849Z" fill="white"/>
</svg>
